<svg width="224" height="200" viewBox="0 0 224 200" fill="none" xmlns="http://www.w3.org/2000/svg">
<rect width="224" height="200" fill="white"/>
<path d="M45.8104 72.9984C45.8104 72.9984 48.9844 72.2584 50.9388 70.4492C53.1636 68.3912 53.1584 66.9944 53.1584 66.9944L59.13 70.3724C59.13 70.3724 59.0516 71.5084 57.2312 73.8988C55.324 76.4036 53.3452 77.2136 52.1092 77.5996C51.7896 77.6996 51.6012 77.744 51.6012 77.744L45.8104 72.9984Z" fill="#F2F2F2"/>
<path d="M144.423 56.2256C144.423 56.2256 147.677 56.3984 150.058 55.2052C152.767 53.8472 153.151 52.5044 153.151 52.5044L157.947 57.41C157.947 57.41 157.555 58.4804 155.142 60.2692C152.613 62.1444 150.486 62.3724 149.192 62.3988C148.858 62.4052 148.664 62.3964 148.664 62.3964L144.423 56.2256Z" fill="#F2F2F2"/>
<path d="M158.485 65.7936C158.485 65.7936 159.402 68.9208 161.317 70.7716C163.497 72.8772 164.891 72.7936 164.891 72.7936L161.854 78.9452C161.854 78.9452 160.714 78.9304 158.226 77.2476C155.618 75.4836 154.698 73.554 154.244 72.3412C154.126 72.028 154.071 71.842 154.071 71.842L158.485 65.7936Z" fill="#F2F2F2"/>
<g opacity="0.3">
<path opacity="0.3" d="M134.657 112.742C134.625 113.49 134.573 114.978 134.529 116.29H98.6488V119.102H100.453V133.461C91.8212 128.502 86.7252 125.85 75.0732 127.638C71.9328 128.121 68.9132 128.51 66.0168 128.702C65.9288 127.834 65.8128 126.729 65.6852 125.577C65.7892 125.525 65.8892 125.473 65.9852 125.417C65.9852 125.417 64.3052 115.17 63.4932 112.17L63.7292 112.034C63.7292 112.034 63.6332 110.993 63.5292 109.581C64.6332 109.461 68.7732 108.965 69.2132 108.306C69.4612 107.934 69.5856 107.521 69.6412 107.202L71.2972 106.893L71.6972 105.578L103.945 105.41V112.778C103.945 113.438 104.481 113.974 105.141 113.974H108.805L107.817 116.217H117.689V115.577H111.953L112.629 113.973H119.341C120 113.973 120.537 113.437 120.537 112.777V105.325L125.089 105.301L127.864 108.825C128.344 109.433 129.205 109.577 129.856 109.161C131.056 108.393 132.976 107.149 134.516 106.053C134.616 108.43 134.728 111.094 134.657 112.742Z" fill="#FFA000"/>
<path opacity="0.3" d="M53.3528 112.338C52.4124 114.994 51.4048 119.786 52.3848 126.87C52.3848 126.87 52.6728 126.91 53.1764 126.962C53.1964 127.194 53.2164 127.435 53.2364 127.678C49 126.466 45.132 124.194 41.648 120.33C33.744 111.566 35.608 95.8424 53.4044 89.49C53.2684 91.99 53.4604 93.1024 53.1684 94.5744C53.1044 94.83 53.0564 95.0344 53.0244 95.1704C53.016 95.2064 53.0084 95.2424 52.9964 95.282C52.9964 95.29 52.9924 95.3024 52.9924 95.31C52.8964 95.646 52.7764 96.006 52.6244 96.41C52.4964 96.746 52.4524 96.9896 52.4764 97.1576V97.1616C51.9524 97.87 51.5084 99.186 51.0764 101.474C50.6444 103.762 50.3804 106.302 50.5804 106.698C50.6564 106.854 51.1084 106.902 51.6324 106.902C52.4444 106.902 53.4284 106.786 53.4284 106.786C53.6924 106.77 53.9848 106.742 54.2924 106.71C54.5524 108.578 53.0924 112.258 53.0924 112.258L53.3528 112.338Z" fill="#FFA000"/>
<path opacity="0.3" d="M165.148 90.722C154.976 86.7464 148.073 85.1024 142.216 71.8024C136.36 58.5024 132.212 49.886 117.089 47.45C104.88 45.482 92.9848 48.4024 86.2888 56.0064L90.2448 55.986L107.413 55.8976L129.301 55.786C131.845 55.7704 133.921 57.826 133.933 60.3704L134.141 100.646V100.766C134.369 100.646 134.629 100.55 134.897 100.474C135.654 99.7856 137.213 99.0176 138.525 98.782C138.525 98.782 138.525 98.786 138.521 98.7936C138.557 98.782 138.577 98.774 138.577 98.774L142.213 98.978C142.213 98.978 145.873 101.026 146.713 101.546C147.257 101.882 146.725 104.678 146.257 106.998C150.841 107.21 151.185 108.094 151.185 108.094C151.185 108.094 150.649 112.01 150.009 116.29H158.345V119.102H156.409V122.794C159.057 121.278 162.021 119.862 165.393 118.63C188.185 110.31 177.608 95.59 165.148 90.722ZM143.4 93.2344C142.596 96.026 141.921 96.3296 141.921 96.3296C141.185 97.0936 138.489 98.0344 137.889 97.974C137.293 97.914 136.832 95.9176 136.677 95.7576C136.525 95.5936 135.797 95.41 135.897 95.1616C135.993 94.91 136.749 93.3656 136.401 93.1656C136.105 92.9936 136.437 92.1656 136.661 91.69C136.661 91.69 134.937 89.95 136.421 89.122C140.657 86.754 141.829 89.69 142.157 89.7744C142.485 89.858 144.332 89.982 143.4 93.2344Z" fill="#FFA000"/>
<path opacity="0.3" d="M143.4 93.2344C142.596 96.026 141.921 96.3296 141.921 96.3296C141.185 97.0936 138.489 98.0344 137.889 97.974C137.293 97.914 136.832 95.9176 136.677 95.7576C136.525 95.5936 135.797 95.41 135.897 95.1616C135.993 94.91 136.749 93.3656 136.401 93.1656C136.105 92.9936 136.437 92.1656 136.661 91.69C136.661 91.69 134.937 89.95 136.421 89.122C140.657 86.754 141.829 89.69 142.157 89.7744C142.485 89.858 144.332 89.982 143.4 93.2344Z" fill="#FFA000"/>
<path opacity="0.3" d="M63.7164 97.2744C63.3764 96.9464 63.0528 96.6824 62.7848 96.55C61.8248 96.0704 60.0964 95.754 59.5408 95.658L58.9408 95.1384C58.8928 94.982 58.8408 94.822 58.7968 94.654C58.7532 94.49 58.7128 94.326 58.6768 94.162C58.8648 94.194 59.0168 94.2064 59.1248 94.2104C59.7728 94.222 60.3568 92.366 60.3568 92.366C60.3568 92.366 60.9128 92.2544 61.0484 92.1708C61.1804 92.0864 60.6528 90.3904 60.8244 89.8144C61 89.2388 61.0764 88.5064 61.0764 88.5064C61.1124 88.162 61.0884 87.8344 61.0084 87.526C61.9404 87.3344 62.8244 87.126 63.6644 86.9104L63.7164 97.2744Z" fill="#FFA000"/>
<path opacity="0.3" d="M71.6964 105.578L71.2964 106.894L69.6404 107.202C69.5844 107.522 69.4604 107.934 69.2124 108.306C68.7724 108.965 64.6324 109.462 63.5284 109.582C63.6324 110.993 63.7284 112.034 63.7284 112.034L63.4924 112.17C64.3044 115.17 65.9844 125.418 65.9844 125.418C65.8884 125.474 65.7884 125.526 65.6844 125.578C65.812 126.729 65.928 127.834 66.016 128.702C64.544 128.794 63.1044 128.842 61.7 128.822C60.148 128.797 58.6364 128.694 57.164 128.49C55.8204 128.306 54.512 128.038 53.2364 127.678C53.216 127.434 53.196 127.194 53.1764 126.962C52.6724 126.91 52.3848 126.87 52.3848 126.87C51.4048 119.786 52.4124 114.994 53.3528 112.338L53.0928 112.258C53.0928 112.258 54.5528 108.578 54.2928 106.71C53.9848 106.742 53.6928 106.77 53.4288 106.786C53.4288 106.786 52.4448 106.902 51.6328 106.902C51.1088 106.902 50.6572 106.854 50.5808 106.697C50.3808 106.302 50.6448 103.761 51.0768 101.474C51.5088 99.1852 51.9528 97.8696 52.4768 97.1612V97.1572C52.4528 96.9892 52.4968 96.7456 52.6248 96.4096C52.7768 96.0056 52.8968 95.6456 52.9928 95.3096C52.9928 95.3016 52.9968 95.2892 52.9968 95.2816C53.0088 95.2416 53.0168 95.206 53.0248 95.17C53.0568 95.034 53.1048 94.8292 53.1688 94.574C53.4604 93.102 53.2688 91.9896 53.4048 89.4896C53.5608 89.434 53.7208 89.378 53.8848 89.3216C53.9568 89.2972 54.0284 89.274 54.1004 89.246C55.1728 88.886 56.3048 88.5616 57.4924 88.2704C58.2844 88.0744 59.1004 87.8976 59.9444 87.7384C60.2484 87.682 60.5484 87.622 60.8404 87.558C60.8964 87.55 60.9524 87.5384 61.0084 87.526C61.0884 87.8344 61.1124 88.162 61.0764 88.5064C61.0764 88.5064 61.0004 89.2384 60.8244 89.8144C60.6524 90.39 61.1804 92.0864 61.0484 92.1708C60.9124 92.2544 60.3568 92.366 60.3568 92.366C60.3568 92.366 59.7728 94.2224 59.1248 94.2104C59.0164 94.2064 58.8648 94.194 58.6768 94.162C58.7128 94.326 58.7528 94.49 58.7968 94.654C58.8408 94.822 58.8928 94.982 58.9408 95.1384L59.5408 95.658C60.0968 95.754 61.8248 96.0704 62.7848 96.55C63.0528 96.682 63.3764 96.946 63.7164 97.2744V97.3704L63.7368 100.818V101.006C63.7408 101.638 63.8688 102.242 64.1004 102.79C64.1324 102.858 64.1644 102.926 64.1924 102.99C64.9444 104.538 66.5364 105.602 68.3684 105.594L71.6964 105.578Z" fill="#FFA000"/>
<path opacity="0.3" d="M79.3407 74.614V78.142C79.3407 78.782 78.8247 79.302 78.1807 79.302H76.8851C78.0167 77.7496 78.7571 76.0856 79.3091 74.3536C79.3283 74.4384 79.3407 74.5256 79.3407 74.614Z" fill="#FFA000"/>
<path opacity="0.3" d="M79.3408 83.818V87.346C79.3408 87.9896 78.8248 88.51 78.1808 88.51H74.6532C74.0128 88.51 73.4932 87.9896 73.4932 87.346V83.818C73.4932 83.178 74.0132 82.658 74.6532 82.658H78.1808C78.8248 82.658 79.3408 83.178 79.3408 83.818Z" fill="#FFA000"/>
<path opacity="0.3" d="M79.3408 93.0256V96.5536C79.3408 97.1936 78.8248 97.7136 78.1808 97.7136H74.6532C74.0128 97.7136 73.4932 97.1932 73.4932 96.5536V93.0256C73.4932 92.382 74.0132 91.8616 74.6532 91.8616H78.1808C78.8248 91.8616 79.3408 92.382 79.3408 93.0256Z" fill="#FFA000"/>
<path opacity="0.3" d="M120.537 105.326V112.778C120.537 113.438 120 113.974 119.341 113.974H112.629L111.953 115.578H117.689V116.218H107.817L108.805 113.974H105.141C104.481 113.974 103.945 113.438 103.945 112.778V105.41L120.537 105.326Z" fill="#FFA000"/>
<path opacity="0.3" d="M124.176 65.55H82.9484V66.986H124.176V65.55Z" fill="#FFA000"/>
<path opacity="0.3" d="M124.176 74.742H82.9484V76.178H124.176V74.742Z" fill="#FFA000"/>
<path opacity="0.3" d="M124.176 84.678H82.9484V86.118H124.176V84.678Z" fill="#FFA000"/>
<path opacity="0.3" d="M124.176 93.8744H82.9484V95.3104H124.176V93.8744Z" fill="#FFA000"/>
<path opacity="0.3" d="M158.344 116.29V119.102H156.408V122.794C155.872 123.098 155.352 123.406 154.844 123.718C154.544 123.903 154.253 124.086 153.96 124.271C147.928 128.118 143.592 132.394 139.496 135.85C138.3 136.858 137.128 137.798 135.937 138.639C133.848 140.111 131.712 141.271 129.332 141.95C128.041 142.322 126.68 142.55 125.212 142.61C120.072 142.822 113.669 140.962 104.644 135.866C103.964 135.482 103.308 135.11 102.676 134.742C102.376 134.574 102.085 134.402 101.792 134.234C101.336 133.974 100.888 133.714 100.452 133.462V119.102H98.6479V116.29H134.528C134.572 114.978 134.624 113.49 134.656 112.742C134.728 111.094 134.616 108.43 134.516 106.054C132.976 107.15 131.056 108.394 129.856 109.162C129.204 109.578 128.344 109.435 127.864 108.826L125.088 105.302L129.556 105.278C132.06 105.266 134.092 103.254 134.14 100.766C134.368 100.646 134.628 100.55 134.896 100.474C135.653 99.7856 137.212 99.0176 138.524 98.782C138.524 98.782 138.524 98.786 138.52 98.7936C138.556 98.782 138.576 98.774 138.576 98.774L142.212 98.978C142.212 98.978 145.872 101.026 146.712 101.546C147.256 101.882 146.724 104.678 146.256 106.998C150.84 107.21 151.184 108.094 151.184 108.094C151.184 108.094 150.648 112.01 150.008 116.29H158.344V116.29Z" fill="#FFA000"/>
</g>
<path opacity="0.7" d="M79.3408 74.614V78.142C79.3408 78.782 78.8248 79.302 78.1808 79.302H74.6532C74.0128 79.302 73.4932 78.7816 73.4932 78.142V74.614C73.4932 73.974 74.0132 73.454 74.6532 73.454H78.1808C78.7328 73.454 79.1928 73.8384 79.3088 74.354C79.3284 74.4384 79.3408 74.5256 79.3408 74.614Z" fill="#FFA000"/>
<path opacity="0.7" d="M79.3408 65.478V69.006C79.3408 69.6496 78.8248 70.17 78.1808 70.17H74.6532C74.0128 70.17 73.4932 69.6496 73.4932 69.006V65.478C73.4932 64.838 74.0132 64.318 74.6532 64.318H78.1808C78.8248 64.318 79.3408 64.8384 79.3408 65.478Z" fill="#FFA000"/>
<path opacity="0.7" d="M79.3408 83.818V87.3461C79.3408 87.9897 78.8248 88.5101 78.1808 88.5101H74.6532C74.0128 88.5101 73.4932 87.9897 73.4932 87.3461V83.818C73.4932 83.178 74.0132 82.6581 74.6532 82.6581H78.1808C78.8248 82.6581 79.3408 83.178 79.3408 83.818Z" fill="#FFA000"/>
<path opacity="0.7" d="M79.3408 93.0256V96.5536C79.3408 97.1936 78.8248 97.7136 78.1808 97.7136H74.6532C74.0128 97.7136 73.4932 97.1932 73.4932 96.5536V93.0256C73.4932 92.382 74.0132 91.8616 74.6532 91.8616H78.1808C78.8248 91.8616 79.3408 92.382 79.3408 93.0256Z" fill="#FFA000"/>
<path opacity="0.6" d="M133.932 60.3704C133.921 57.826 131.844 55.7704 129.3 55.786L107.412 55.8976L90.2444 55.986L86.2884 56.0064L68.116 56.098C65.5684 56.1144 63.516 58.1864 63.528 60.7348L63.664 86.9104L63.716 97.2744V97.3704L63.7364 100.818V101.006C63.7404 101.638 63.8684 102.242 64.1 102.79C64.132 102.858 64.164 102.926 64.192 102.99C64.944 104.538 66.536 105.602 68.368 105.594L71.6956 105.578L103.944 105.41L120.536 105.326L125.088 105.302L129.556 105.278C132.06 105.266 134.092 103.254 134.14 100.766V100.646L133.932 60.3704ZM79.3408 96.554C79.3408 97.194 78.8248 97.714 78.1808 97.714H74.6532C74.0128 97.714 73.4932 97.1936 73.4932 96.554V93.026C73.4932 92.3824 74.0132 91.862 74.6532 91.862H78.1808C78.8248 91.862 79.3408 92.3824 79.3408 93.026V96.554ZM79.3408 87.346C79.3408 87.9896 78.8248 88.51 78.1808 88.51H74.6532C74.0128 88.51 73.4932 87.9896 73.4932 87.346V83.818C73.4932 83.178 74.0132 82.658 74.6532 82.658H78.1808C78.8248 82.658 79.3408 83.1784 79.3408 83.818V87.346ZM79.3408 78.142C79.3408 78.782 78.8248 79.302 78.1808 79.302H74.6532C74.0128 79.302 73.4932 78.7816 73.4932 78.142V74.614C73.4932 73.974 74.0132 73.454 74.6532 73.454H78.1808C78.7328 73.454 79.1928 73.8384 79.3088 74.354C79.3288 74.4384 79.3408 74.526 79.3408 74.614V78.142ZM79.3408 69.0064C79.3408 69.65 78.8248 70.1704 78.1808 70.1704H74.6532C74.0128 70.1704 73.4932 69.65 73.4932 69.0064V65.4784C73.4932 64.8384 74.0132 64.3184 74.6532 64.3184H78.1808C78.8248 64.3184 79.3408 64.8388 79.3408 65.4784V69.0064ZM124.176 95.31H82.9484V93.874H124.176V95.31ZM124.176 86.118H82.9484V84.678H124.176V86.118ZM124.176 76.178H82.9484V74.742H124.176V76.178ZM124.176 66.986H82.9484V65.55H124.176V66.986Z" fill="#FFA000"/>
<path opacity="0.7" d="M124.176 65.55H82.9485V66.986H124.176V65.55Z" fill="#FFA000"/>
<path opacity="0.7" d="M124.176 74.742H82.9485V76.178H124.176V74.742Z" fill="#FFA000"/>
<path opacity="0.7" d="M124.176 84.678H82.9485V86.118H124.176V84.678Z" fill="#FFA000"/>
<path opacity="0.7" d="M124.176 93.8745H82.9485V95.3104H124.176V93.8745Z" fill="#FFA000"/>
<path d="M124.176 65.55H82.9484V66.986H124.176V65.55Z" fill="white"/>
<path d="M124.176 74.7421H82.9484V76.1781H124.176V74.7421Z" fill="white"/>
<path d="M124.176 84.6781H82.9484V86.1181H124.176V84.6781Z" fill="white"/>
<path d="M124.176 93.8744H82.9484V95.3104H124.176V93.8744Z" fill="white"/>
<path d="M79.3408 65.478V69.006C79.3408 69.6496 78.8248 70.17 78.1808 70.17H74.6532C74.0128 70.17 73.4932 69.6496 73.4932 69.006V65.478C73.4932 64.838 74.0132 64.318 74.6532 64.318H78.1808C78.8248 64.318 79.3408 64.8384 79.3408 65.478Z" fill="#FFA000"/>
<path d="M79.3408 83.818V87.346C79.3408 87.9896 78.8248 88.51 78.1808 88.51H74.6532C74.0128 88.51 73.4932 87.9896 73.4932 87.346V83.818C73.4932 83.178 74.0132 82.658 74.6532 82.658H78.1808C78.8248 82.658 79.3408 83.178 79.3408 83.818Z" fill="#FFA000"/>
<path d="M76.2176 86.9976L74.594 85.5868C74.4608 85.4704 74.4472 85.2696 74.5624 85.136C74.6776 85.0032 74.8792 84.9892 75.0128 85.1048L76.1604 86.1024L77.794 84.276C77.9104 84.144 78.112 84.1332 78.244 84.2504C78.376 84.3684 78.3876 84.57 78.2692 84.702L76.2176 86.9976Z" fill="white"/>
<path d="M79.3408 74.614V78.142C79.3408 78.782 78.8248 79.302 78.1808 79.302H74.6532C74.0128 79.302 73.4932 78.7816 73.4932 78.142V74.614C73.4932 73.974 74.0132 73.454 74.6532 73.454H78.1808C78.7328 73.454 79.1928 73.8384 79.3088 74.354C79.3284 74.4384 79.3408 74.5256 79.3408 74.614Z" fill="#FFA000"/>
<path d="M76.2176 77.7917L74.594 76.3817C74.4608 76.2653 74.4472 76.0637 74.5624 75.9309C74.6776 75.7973 74.8792 75.7833 75.0128 75.8989L76.1604 76.8965L77.794 75.0701C77.9104 74.9389 78.112 74.9281 78.244 75.0453C78.376 75.1633 78.3876 75.3649 78.2692 75.4953L76.2176 77.7917Z" fill="white"/>
<path d="M79.3408 93.0256V96.5536C79.3408 97.1936 78.8248 97.7136 78.1808 97.7136H74.6532C74.0128 97.7136 73.4932 97.1932 73.4932 96.5536V93.0256C73.4932 92.382 74.0132 91.8616 74.6532 91.8616H78.1808C78.8248 91.8616 79.3408 92.382 79.3408 93.0256Z" fill="#FFA000"/>
<path d="M76.2176 96.2033L74.594 94.7933C74.4608 94.6777 74.4472 94.4761 74.5624 94.3417C74.6776 94.2089 74.8792 94.1949 75.0128 94.3105L76.1604 95.3081L77.794 93.4817C77.9104 93.3505 78.112 93.3397 78.244 93.4573C78.376 93.5745 78.3876 93.7761 78.2692 93.9065L76.2176 96.2033Z" fill="white"/>
<path d="M75.7352 67.69C75.7352 67.6144 75.7388 67.5416 75.7496 67.472C75.7588 67.4024 75.778 67.3368 75.806 67.272C75.834 67.2072 75.8752 67.1472 75.9272 67.0908C75.9804 67.0344 76.05 66.9836 76.1352 66.9376C76.1784 66.914 76.2356 66.8836 76.3064 66.8456C76.3784 66.8088 76.4476 66.7644 76.5148 66.7152C76.582 66.666 76.6404 66.608 76.69 66.5432C76.7396 66.4792 76.7652 66.408 76.7652 66.3292C76.7652 66.2208 76.7244 66.1356 76.646 66.0744C76.566 66.012 76.476 65.9824 76.3728 65.9824C76.308 65.9824 76.248 65.9948 76.1976 66.02C76.1468 66.0444 76.1 66.0748 76.0596 66.1084C76.0176 66.1436 75.982 66.1828 75.9524 66.2256C75.9236 66.2676 75.8964 66.306 75.874 66.3396L75.364 65.9824C75.4504 65.7808 75.5864 65.6244 75.7728 65.512C75.9588 65.4004 76.1696 65.3448 76.4032 65.3448C76.5288 65.3448 76.6544 65.362 76.7788 65.398C76.904 65.4356 77.0172 65.4932 77.1148 65.5716C77.2156 65.6504 77.2952 65.7528 77.3584 65.8788C77.4204 66.0036 77.4524 66.156 77.4524 66.3344C77.4524 66.522 77.4128 66.6804 77.3356 66.8072C77.2584 66.934 77.144 67.0456 76.992 67.1408C76.9232 67.1876 76.852 67.2292 76.7816 67.2652C76.7116 67.302 76.6456 67.3396 76.586 67.3792C76.5276 67.4192 76.4796 67.4636 76.4428 67.5128C76.4072 67.562 76.388 67.6212 76.388 67.6908H75.7352V67.69ZM75.7496 68.9024V68.1596H76.3976V68.9024H75.7496Z" fill="white"/>
<path d="M157.629 103.406C157.629 103.406 158.638 103.231 158.619 102.821C158.598 102.41 158.772 101.851 158.835 101.678C158.92 101.446 158.928 100.627 159.207 100.743C159.485 100.86 159.254 102.097 159.254 102.368C159.254 102.639 160.128 101.881 160.394 101.878C160.659 101.876 161.788 103.511 161.131 103.956C160.473 104.401 159.484 104.409 159.384 104.511C159.283 104.614 158.412 104.957 158.412 104.957L157.629 103.406Z" fill="#EEA886"/>
<path d="M160.216 101.943C160.216 101.943 162.318 100.725 162.524 100.77C162.732 100.814 162.789 100.94 162.597 101.063C162.405 101.186 160.6 102.304 160.6 102.304C160.6 102.304 163.324 101.312 163.5 101.308C163.604 101.307 163.729 101.545 163.632 101.621C163.535 101.696 160.89 102.845 160.89 102.845C160.89 102.845 163.436 101.924 163.584 101.969C163.715 102.008 163.779 102.256 163.595 102.338C163.411 102.42 161.096 103.418 161.096 103.418C161.096 103.418 162.991 102.873 163.098 102.988C163.163 103.06 163.28 103.26 162.786 103.384C162.293 103.509 161.16 103.933 161.16 103.933L160.216 101.943Z" fill="#EEA886"/>
<path d="M144.984 129.538L149.11 146.745H150.019L146.519 129.5L144.984 129.538Z" fill="#858585"/>
<path d="M140.48 129.538L144.608 146.745H145.517L142.017 129.5L140.48 129.538Z" fill="#858585"/>
<path d="M135.45 129.538L131.323 146.745H130.413L133.913 129.5L135.45 129.538Z" fill="#858585"/>
<path d="M151.185 108.094C151.185 108.094 150.648 112.01 150.009 116.29C149.953 116.654 149.897 117.018 149.841 117.386V117.39C149.765 117.89 149.689 118.39 149.613 118.886C149.601 118.958 149.589 119.029 149.577 119.102C149.417 120.134 149.257 121.142 149.097 122.078C148.917 123.157 148.745 124.138 148.589 124.946C148.509 125.346 148.437 125.702 148.369 126.006C148.205 126.725 148.028 127.302 147.844 127.77C147.104 129.685 146.3 129.706 146.3 129.706H128.516C128.392 128.002 128.869 125.138 128.869 125.138L129.069 124.878L133.521 119.102L133.689 118.886L134.48 117.858V117.854L135.132 117.01L135.476 116.566L135.688 116.29L135.748 116.214L136.072 115.79L142.868 106.974C144.196 106.946 145.316 106.962 146.256 106.998C150.841 107.21 151.185 108.094 151.185 108.094Z" fill="#E2D2CA"/>
<path d="M134.805 118.843L137.123 118.438L135.578 114.547L134.805 118.843Z" fill="#24263D"/>
<path d="M125.46 145.038C125.46 145.038 123.936 145.944 123.247 146.281C122.556 146.618 119.872 146.721 119.607 146.974C119.343 147.226 119.442 148.029 119.886 148.109C120.332 148.19 123.596 148.477 124.684 148.219C125.772 147.962 127.809 148.386 128.26 148.232C128.71 148.077 128.413 145.646 128.238 145.101C128.062 144.556 125.46 145.038 125.46 145.038Z" fill="#324DA9"/>
<path d="M125.484 144.009L125.46 145.038C125.46 145.038 127.501 145.414 128.238 145.101L128.187 143.972L125.484 144.009Z" fill="#1C1E30"/>
<path d="M144.42 120.864C144.42 120.864 132.77 123.338 130.952 124.11C129.134 124.882 128.043 125.201 127.907 125.586C127.77 125.973 124.93 144.45 124.93 144.45H128.793C128.793 144.45 131.793 130.496 132.156 129.632C132.52 128.768 146.929 128.722 147.974 127.677C149.019 126.632 149.928 123.768 148.792 121.2C147.656 118.632 144.42 120.864 144.42 120.864Z" fill="#282B45"/>
<path d="M139.666 145.768C139.666 145.768 138.298 146.896 137.668 147.335C137.038 147.774 134.4 148.286 134.178 148.577C133.955 148.867 134.175 149.645 134.628 149.656C135.081 149.668 138.349 149.452 139.386 149.031C140.422 148.611 142.5 148.718 142.921 148.496C143.344 148.274 142.678 145.918 142.421 145.406C142.164 144.894 139.666 145.768 139.666 145.768Z" fill="#324DA9"/>
<path d="M139.532 144.748L139.666 145.768C139.666 145.768 141.741 145.827 142.421 145.406L142.197 144.298L139.532 144.748Z" fill="#324DA9"/>
<path d="M145.149 119.142C145.149 119.142 132.522 124.9 131.703 126.766C130.87 128.666 139.074 145.264 139.074 145.264L142.847 144.68C142.847 144.68 136.678 128.894 137.016 128.105C137.354 127.317 157.36 124.933 152.744 119.623C148.127 114.312 145.149 119.142 145.149 119.142Z" fill="#282B45"/>
<path d="M145.094 101.35C145.7 101.035 147.722 101.725 148.319 102.655C149.707 104.816 152.33 107.487 152.33 107.487L158.178 102.57L159.351 105.501L152.408 111.352C151.817 111.851 150.944 111.82 150.389 111.281C148.565 109.511 144.812 105.788 144.522 104.856C144.138 103.624 143.936 101.952 145.094 101.35Z" fill="#203991"/>
<path d="M146.257 106.998C146 108.278 145.761 109.414 145.737 109.91C145.696 110.686 144.932 113.746 144.269 116.29C144.037 117.174 143.816 117.998 143.644 118.638L143.576 118.886L143.52 119.102H143.516L143.28 119.978L139.3 119.102L138.32 118.886L136.656 118.518L135.848 118.342C135.896 118.17 135.88 117.726 135.832 117.114C135.812 116.866 135.784 116.586 135.756 116.29C135.752 116.265 135.748 116.238 135.748 116.214C135.708 115.838 135.66 115.434 135.608 115.014V115.01C135.592 114.886 135.58 114.758 135.56 114.626C135.368 113.066 135.136 111.37 135.008 110.274C134.896 109.302 134.776 107.614 134.708 105.914C134.616 103.51 134.624 101.09 134.904 100.662C134.956 100.582 135.04 100.498 135.148 100.41C135.96 99.7576 138.144 98.9344 138.52 98.7936C138.556 98.782 138.576 98.774 138.576 98.774L142.212 98.978C142.212 98.978 145.872 101.026 146.712 101.546C147.257 101.882 146.725 104.678 146.257 106.998Z" fill="white"/>
<path d="M143.282 119.978L143.646 118.637L135.834 117.116L135.85 118.342L143.282 119.978Z" fill="#1F2136"/>
<path d="M139.396 117.74L137.543 117.353V118.819L139.396 119.251V117.74Z" fill="#4F558A"/>
<path d="M140.226 113.924C140.246 114.307 140.271 114.696 140.291 115.089L140.296 115.094C140.56 119.407 140.954 123.92 140.954 123.92C141.496 124.373 148.38 122.774 148.38 122.774C148.38 122.774 147.532 121.624 146.716 118.436C145.894 115.253 146.536 112.195 147.388 107.016C148.234 101.837 147.532 101.866 147.532 101.866L142.214 98.9772C141.865 100.302 140.455 105.108 140.122 107.862C140.003 108.868 140.077 111.274 140.226 113.924Z" fill="#203991"/>
<path d="M138.525 98.782C138.525 98.782 138.525 98.786 138.521 98.7936C138.473 98.914 138.064 99.9896 137.593 101.538C137.365 102.286 137.125 103.142 136.901 104.054C136.901 104.054 136.901 104.058 136.897 104.058C136.677 104.954 136.473 105.91 136.321 106.866C135.965 109.058 135.809 112.19 135.633 114.686C135.625 114.798 135.617 114.902 135.609 115.01V115.014C135.577 115.471 135.541 115.898 135.505 116.29C135.496 116.386 135.489 116.478 135.477 116.566C135.353 117.83 135.197 118.682 134.957 118.742C134.905 118.754 134.857 118.766 134.816 118.778C134.26 118.91 134.453 118.802 134.453 118.802C134.453 118.802 134.464 118.426 134.48 117.858V117.854C134.496 117.418 134.512 116.874 134.528 116.29C134.572 114.978 134.624 113.49 134.656 112.742C134.728 111.094 134.616 108.43 134.516 106.054C134.408 103.578 133.992 101.038 134.14 100.646C134.204 100.477 133.992 100.67 134.204 100.477C134.96 99.79 137.212 99.018 138.525 98.782Z" fill="#203991"/>
<path d="M138.653 98.1556C138.653 98.4 138.632 98.6244 138.578 98.7736C138.578 98.7736 138.986 100.367 142.214 98.9776C142.214 98.9776 141.576 96.602 142.214 94.6096L138.578 96.866C138.578 96.866 138.623 97.2244 138.642 97.6432C138.653 97.8116 138.658 97.9916 138.653 98.1556Z" fill="#EEA987"/>
<path d="M142.082 98.346C142.082 98.346 140.814 98.9592 139.534 99.078L140.158 100.404L142.214 98.9788L142.082 98.346Z" fill="#D3D3D3"/>
<path d="M139.534 99.078C139.534 99.078 138.641 98.7828 138.647 98.346L138.526 98.7836L138.89 100.184L139.534 99.078Z" fill="#D3D3D3"/>
<path d="M139.534 99.078L139.067 99.8796C139.067 99.8796 139.283 100.126 139.976 100.02L139.534 99.078Z" fill="#FFA000"/>
<path d="M139.167 99.9492C139.167 99.9492 137.26 105.562 137.244 109.547C137.229 113.531 137.543 115.91 137.543 115.91L137.964 116.694L138.577 115.978C138.577 115.978 138.144 104.408 139.841 100.036C139.842 100.036 139.238 99.7484 139.167 99.9492Z" fill="#FFA000"/>
<path d="M138.642 97.6428C138.652 97.8116 138.657 97.9912 138.652 98.1552C141.217 98.196 141.257 96.7308 141.257 96.7308C140.858 97.792 138.642 97.6428 138.642 97.6428Z" fill="#A77860"/>
<path d="M123.806 99.618C123.806 99.618 123.172 98.3596 123.07 98.1712C122.968 97.982 122.468 97.7212 121.871 97.4752C121.274 97.2308 120.37 97.1972 120.282 97.2696C120.193 97.3416 120.074 97.368 119.984 97.6648C119.894 97.9608 119.964 98.2672 119.964 98.2672C119.964 98.2672 119.698 98.5736 119.81 98.9436C119.81 98.9436 119.571 99.2444 119.761 99.642C119.761 99.642 119.536 99.9428 119.695 100.218C119.695 100.218 120.195 100.482 120.356 100.639C120.516 100.796 121.591 101.263 122.683 101.536C122.683 101.536 123.792 101.406 123.806 99.618Z" fill="#EEA886"/>
<path d="M123.806 99.618C123.806 99.618 125.014 100.823 124.986 101.111C124.941 101.586 124.354 102.975 124.324 102.947C124.294 102.919 122.433 101.47 122.433 101.47L123.806 99.618Z" fill="#EEA886"/>
<path d="M136.378 104.021C136.378 104.021 136.378 104.025 136.374 104.025C136.174 104.377 135.298 105.081 134.186 105.881C134.122 105.929 134.058 105.973 133.994 106.022C132.454 107.117 130.534 108.362 129.334 109.13C128.682 109.545 127.822 109.402 127.342 108.794L124.566 105.269L121.722 101.661L121.878 101.425L123.199 99.4212L123.463 99.0252L128.199 105.021C128.199 105.021 131.307 102.933 133.103 101.097C133.239 100.957 133.415 100.837 133.619 100.733C133.847 100.612 134.107 100.516 134.375 100.441C134.459 100.416 134.543 100.397 134.627 100.377C135.415 100.205 136.223 100.225 136.523 100.469C136.859 100.741 137.027 101.101 137.071 101.505C137.17 102.305 136.794 103.265 136.378 104.021Z" fill="#203991"/>
<path d="M121.75 99.1882L122.077 98.9633L119.413 95.0931L119.086 95.318L121.75 99.1882Z" fill="#EB4747"/>
<path d="M119.42 95.0916L118.866 94.6328L119.092 95.3156L119.42 95.0916Z" fill="#EEA886"/>
<path d="M120.441 97.3272C120.441 97.3272 121.941 97.988 121.876 98.27C121.811 98.5512 121.634 98.6108 121.634 98.6108L122.142 99.1944C122.142 99.1944 122.282 99.7912 121.658 99.7844C121.658 99.7844 121.842 100.327 121.238 100.242C121.238 100.242 121.216 100.659 120.93 100.674C120.645 100.689 119.696 100.219 119.696 100.219C119.696 100.219 119.535 100.02 119.762 99.6424C119.762 99.6424 119.56 99.2728 119.81 98.944C119.81 98.944 119.691 98.6204 119.964 98.2676C119.964 98.2676 119.748 97.524 120.282 97.27C120.282 97.2696 120.377 97.2992 120.441 97.3272Z" fill="#D69779"/>
<path d="M123.026 98.1436C123.026 98.1436 121.925 98.2624 121.35 98.62C121.22 98.7004 121.108 98.8052 121.127 98.9708C121.146 99.1364 121.385 99.316 121.864 99.292C122.342 99.2684 122.973 99.482 122.973 99.482C122.973 99.482 123.459 99.296 123.026 98.1436Z" fill="#EEA886"/>
<path d="M124.334 129.874C124.334 129.874 125.151 124.777 125.194 124.57C125.238 124.364 126.069 123.621 130.04 122.32C130.04 122.32 125.625 123.178 124.468 123.932C123.575 124.513 124.334 129.874 124.334 129.874Z" fill="#12131F"/>
<path d="M102.675 120.433H101.791V149.466H102.675V120.433Z" fill="#324DA9"/>
<path d="M154.845 120.433H153.96V149.466H154.845V120.433Z" fill="#324DA9"/>
<path d="M156.409 118.886H100.453V145.19H156.409V118.886Z" fill="#C4CBE8"/>
<path d="M158.344 116.218H98.6484V119.03H158.344V116.218Z" fill="#324DA9"/>
<path d="M103.011 148.895H101.455V149.466H103.011V148.895Z" fill="#324DA9"/>
<path d="M155.15 148.895H153.656V149.466H155.15V148.895Z" fill="#324DA9"/>
<path d="M120.537 103.21V112.778C120.537 113.438 120 113.974 119.341 113.974H105.141C104.481 113.974 103.945 113.438 103.945 112.778V103.21C103.945 102.55 104.481 102.014 105.141 102.014H119.341C120 102.014 120.537 102.55 120.537 103.21Z" fill="#F7F7F7"/>
<path d="M114.828 115.578V116.218H107.816L108.805 113.974L110.576 109.95L110.644 109.794H114.396L112.641 113.95L112.628 113.974L111.953 115.578H114.828Z" fill="#F7F7F7"/>
<path d="M114.18 109.794L114.108 109.97L112.412 113.974L111.464 116.218H107.828L108.816 113.974L110.585 109.95L110.653 109.794H114.18Z" fill="#F2F2F2"/>
<path d="M117.689 115.578V116.218H111.705L111.953 115.578H117.689Z" fill="#D3D3D3"/>
<path d="M112.632 113.951L114.397 109.774V113.951H112.632Z" fill="#D3D3D3"/>
<path d="M110.995 111.735C111.19 111.23 111.66 110.924 112.12 110.962C112.082 110.94 112.044 110.922 112.003 110.906C111.471 110.7 110.852 111.02 110.62 111.621C110.387 112.222 110.63 112.876 111.161 113.081C111.246 113.114 111.332 113.132 111.419 113.139C110.971 112.888 110.78 112.29 110.995 111.735Z" fill="white"/>
<path d="M111.708 113.116C112.065 113.037 112.39 112.765 112.544 112.366C112.715 111.926 112.629 111.458 112.362 111.158C112.322 111.114 112.28 111.072 112.232 111.036C112.197 111.009 112.159 110.984 112.12 110.962C111.66 110.924 111.191 111.23 110.996 111.735C110.781 112.29 110.972 112.888 111.42 113.139C111.453 113.141 111.485 113.143 111.518 113.142C111.581 113.141 111.645 113.13 111.708 113.116Z" fill="#D3D3D3"/>
<path d="M170.812 86.7928C170.812 86.7928 170.058 86.8936 170.064 86.574C170.07 86.2552 170.121 85.8388 170.121 85.8388L170.812 86.7928Z" fill="#EEA987"/>
<path d="M175.052 83.332L172.576 85.2476C172.891 85.1884 173.42 85.1116 173.432 85.2772C173.449 85.5124 172.491 85.7968 172.187 86.0108C171.909 86.2076 171.616 86.5576 171.539 86.574L170.998 87.038L170.122 85.8388C170.122 85.8388 171.567 84.2028 171.916 83.8544C172.482 83.2872 174.773 82.9536 174.898 83.0364C175.124 83.1852 175.052 83.332 175.052 83.332Z" fill="#EEA987"/>
<path d="M171.995 87.1188L169.998 85.4268L163.149 92.3488C162.076 93.0856 165.24 95.626 166.133 96.1808C168.429 97.6044 171.138 100.898 173.947 98.8892C176.992 96.7112 172.559 95.1612 171.081 95.1992C169.799 95.232 167.009 92.7124 167.009 92.7124L171.995 87.1188Z" fill="#FFA000"/>
<path d="M168.38 149.228C168.38 149.228 167.242 150.422 166.087 150.673C164.932 150.923 162.939 151.776 162.93 152.462C162.92 153.148 167.44 153.066 168.762 152.375C170.735 151.343 170.936 151.654 171.154 151.138C171.373 150.623 170.892 149.243 170.906 149.08C170.923 148.877 168.38 149.228 168.38 149.228Z" fill="#203991"/>
<path d="M168.508 148.656C168.508 148.656 168.358 149.216 168.38 149.228C168.403 149.24 170.984 149.529 170.906 149.08C170.842 148.715 170.752 148.319 170.752 148.319L168.508 148.656Z" fill="#2F6B8C"/>
<path d="M181.236 149.539C181.236 149.539 180.398 150.703 179.278 150.972C178.174 151.237 176.54 152.27 176.486 152.937C176.432 153.602 180.008 153.945 181.875 152.775C183.102 152.006 183.559 152.05 183.806 151.561C184.053 151.072 183.677 149.703 183.702 149.544C183.732 149.348 181.236 149.539 181.236 149.539Z" fill="#203991"/>
<path d="M181.269 148.964C181.269 148.964 181.214 149.526 181.236 149.539C181.256 149.552 183.716 149.987 183.702 149.544C183.69 149.192 183.545 148.753 183.545 148.753L181.269 148.964Z" fill="#2F6B8C"/>
<path d="M171.112 115.035C171.112 115.035 169.916 123.718 169.428 126.653C168.858 130.084 168.664 132.92 168.504 134.697C168.304 136.93 168.039 148.362 167.899 149.016C167.758 149.669 171.38 149.33 171.38 149.33C171.38 149.33 173.277 134.426 173.873 132.046C174.429 129.831 176.046 120.262 176.552 120.866C177.058 121.471 178.61 132.312 178.984 134.058C179.36 135.805 180.365 149.56 180.365 149.56C180.365 149.56 183.782 150.108 184.47 149.56C184.47 149.56 183.93 137.295 183.692 134.02C183.6 132.771 184.482 119.074 182.37 113.55C181.255 110.632 171.112 115.035 171.112 115.035Z" fill="#324DA9"/>
<path d="M175.019 94.2124C175.019 94.2124 171.856 94.8664 171.481 95.1992C171.074 95.5532 170.354 99.0164 170.312 99.982C170.268 100.948 170.693 104.978 171.1 106.479C171.508 107.98 170.566 114.399 170.309 116.479C170.309 116.479 177.348 117.8 183.609 116.985C183.609 116.985 182.755 110.669 183.006 108.612C183.328 105.977 184.099 99.9052 184.099 99.9052C184.099 99.9052 184.104 96.488 183.62 95.942C182.582 94.7692 178.588 94.2124 178.588 94.2124H175.019Z" fill="#FFA000"/>
<path d="M179.368 100.55C179.516 103.678 180.512 104.438 181.492 104.195C181.8 104.12 182.102 103.944 182.368 103.713C182.784 103.351 183.111 102.849 183.228 102.372C183.658 100.63 183.661 95.8256 181.463 95.2076C181.463 95.208 179.078 94.4368 179.368 100.55Z" fill="#FFA000"/>
<path d="M169.909 101.971C169.909 101.971 171.674 101.678 171.781 104.238C171.889 106.797 172.997 111.551 174.802 113.446L167.701 113.715C165.896 111.821 165.009 107.283 164.875 104.725C164.75 102.373 163.001 102.459 163.001 102.459L169.909 101.971Z" fill="#D3D3D3"/>
<path d="M174.051 96.1092C174.092 96.1364 174.134 96.1624 174.182 96.1848C174.342 96.2668 174.546 96.3256 174.802 96.3536C174.896 96.3644 174.99 96.3676 175.084 96.3652C175.142 96.3644 175.199 96.3604 175.258 96.3552C176.932 96.192 178.593 94.2764 178.593 94.2764C175.232 93.7672 173.791 94.3936 173.791 94.3936C173.791 94.3936 173.253 95.5712 174.051 96.1092Z" fill="#FFA000"/>
<path d="M174.121 94.8976C174.121 94.8976 174.904 95.4148 177.873 94.1068C177.873 94.1068 177.577 92.3436 178.034 90.4092C178.476 88.5476 174.388 92.7052 174.388 92.7052C174.436 92.7396 174.444 92.9296 174.417 93.1944C174.41 93.2664 174.4 93.3428 174.387 93.4224C174.366 93.56 174.337 93.7068 174.301 93.8576C174.292 93.8984 174.282 93.9388 174.27 93.9796C174.104 94.6156 174.121 94.3428 174.121 94.8976Z" fill="#EEA886"/>
<path d="M177.872 93.5444C177.872 93.5444 176.32 94.4804 174.784 94.6912L175.601 95.9952L178.189 94.2124L177.872 93.5444Z" fill="#203991"/>
<path d="M174.27 93.9796C174.27 93.9796 174.434 94.5164 174.784 94.6912L174.017 95.7608L174.045 94.3428L174.27 93.9796Z" fill="#203991"/>
<path d="M174.284 93.4648C176.044 93.5576 177.17 91.7328 177.204 91.6788C176.099 92.886 174.387 92.9576 174.387 92.9576C174.366 93.0952 174.32 93.314 174.284 93.4648Z" fill="#A77860"/>
<path d="M169.909 101.971C169.909 101.971 167.796 102.167 168.242 105.116L161.969 105.456C161.969 105.456 161.102 103.447 163.001 102.459L169.909 101.971Z" fill="#F7F7F7"/>
<path d="M175.346 107.484C175.346 107.484 175.074 107.612 174.838 107.548C174.43 107.437 174.082 106.87 173.549 107.161C173.016 107.452 173.464 109.403 173.734 109.689C174.005 109.975 174.835 109.808 175.873 109.063C176.911 108.32 175.346 107.484 175.346 107.484Z" fill="#EEA886"/>
<path d="M173.743 107.089C173.743 107.089 172.842 107.156 171.849 107.354C170.978 107.528 169.92 107.864 169.961 108.084C170.023 108.418 170.859 108.042 171.734 107.929C172.541 107.824 172.399 107.981 172.399 107.981C172.399 107.981 172.436 107.934 171.58 108.221C170.659 108.53 169.684 108.898 169.713 109.08C169.751 109.303 169.774 109.328 170.127 109.271C169.932 109.348 169.924 109.413 169.949 109.499C170.074 109.941 171.496 109.702 172.061 109.606C171.628 109.682 171.318 109.784 171.569 110.006C171.856 110.26 173.854 109.829 174.584 109.744C175.38 109.652 173.743 107.089 173.743 107.089Z" fill="#EEA886"/>
<path d="M180.761 95.2696C180.115 95.482 179.77 96.3944 180.163 98.29C180.598 100.386 181.084 101.405 181.365 101.898C181.645 102.392 183.159 104.92 182.882 105.32C182.606 105.72 178.947 106.672 178.698 106.743C178.202 106.884 174.883 107.546 174.883 107.546L175.695 110.389C175.695 110.389 185.801 108.664 186.294 108.173C186.786 107.681 187.042 107.014 186.498 105.296C185.945 103.55 184.952 99.4604 184.774 99.1408C184.599 98.8212 183.673 94.3124 180.761 95.2696Z" fill="#FFA000"/>
<path opacity="0.3" d="M180.253 98.7032C180.253 98.7032 180.583 102.938 182.049 105.945C182.494 105.845 182.933 105.615 183.318 105.31C183.318 105.31 181.623 102.527 181.472 102.211C181.32 101.894 180.424 99.44 180.253 98.7032Z" fill="#A77860"/>
<path opacity="0.3" d="M175.396 109.79C175.396 109.79 179.464 110.52 182.967 110.085C182.915 109.747 182.962 109.376 183.071 108.942C183.071 108.942 179.786 109.587 179.418 109.631C179.049 109.674 176.229 109.817 175.396 109.79Z" fill="#A77860"/>
<path d="M57.8445 84.958L57.8005 85.358L57.3249 89.85C56.2049 89.0296 55.2849 89.742 54.5889 90.8976C54.5689 90.9296 54.5485 90.9616 54.5289 90.9976C53.9169 89.8896 53.1853 87.886 54.5489 86.142C55.2213 85.282 56.2129 84.91 57.2249 84.91C57.2849 84.91 57.3489 84.91 57.4089 84.914C57.4369 84.914 57.4609 84.918 57.4889 84.918C57.5325 84.922 57.5805 84.926 57.6249 84.9296C57.6609 84.9344 57.6969 84.938 57.7329 84.942C57.7533 84.946 57.7733 84.946 57.7929 84.95C57.8085 84.954 57.8285 84.954 57.8445 84.958Z" fill="#E8734D"/>
<path d="M61.0483 92.1704C60.9123 92.254 60.3567 92.3656 60.3567 92.3656C60.3567 92.3656 59.7727 94.222 59.1247 94.21C59.0163 94.206 58.8647 94.1936 58.6767 94.1616C58.2327 94.086 57.5927 93.906 56.9327 93.546L57.1007 91.974L57.2731 90.342C57.2731 90.338 57.2771 90.338 57.2771 90.338L57.3091 90.002L57.3251 89.8496C56.2051 89.0292 55.2851 89.7416 54.5891 90.8972C54.3647 90.3736 54.1891 89.8096 54.1007 89.2456C53.7967 87.3652 54.4487 85.5176 57.4007 85.3496C57.5167 85.3416 57.6531 85.3456 57.8007 85.3576C58.7607 85.4256 60.2251 85.9176 60.8411 87.5576C60.9491 87.838 61.0291 88.1536 61.0771 88.506C61.0771 88.506 61.0011 89.238 60.8251 89.814C60.6527 90.39 61.1803 92.086 61.0483 92.1704Z" fill="#A77860"/>
<path d="M61.0764 88.5064C61.0764 88.5064 59.4204 89.65 57.7724 89.894C57.664 89.9104 57.564 89.93 57.464 89.958H57.46C57.408 89.9704 57.356 89.986 57.308 90.0024L57.324 89.85C56.204 89.0296 55.284 89.742 54.588 90.8976C54.568 90.9296 54.5476 90.9616 54.528 90.9976C54.408 90.778 54.28 90.522 54.1684 90.2384C54.144 90.1784 54.1204 90.118 54.096 90.054C54.012 89.826 53.94 89.5784 53.8844 89.322C53.8844 89.318 53.8844 89.314 53.88 89.3104C53.864 89.2384 53.8524 89.166 53.84 89.09C53.824 89.0144 53.812 88.9344 53.804 88.85C53.7956 88.7744 53.788 88.6936 53.784 88.618C53.7796 88.5384 53.7756 88.458 53.7756 88.378C53.7756 87.642 53.9796 86.87 54.5476 86.142C55.22 85.282 56.2116 84.91 57.2236 84.91C57.2836 84.91 57.3476 84.91 57.4076 84.914C57.4356 84.914 57.4596 84.918 57.4876 84.918C57.5312 84.922 57.5792 84.926 57.6236 84.9296C57.6596 84.9344 57.6956 84.938 57.7316 84.942C57.752 84.946 57.772 84.946 57.7916 84.95C57.8076 84.954 57.8276 84.954 57.8436 84.958C59.3036 85.1784 60.6716 86.1464 61.0076 87.526C61.0888 87.8344 61.1124 88.1616 61.0764 88.5064Z" fill="#324DA9"/>
<path d="M53.1688 94.5744C53.1324 94.762 53.0848 94.962 53.0248 95.1704C53.0568 95.0344 53.1048 94.8296 53.1688 94.5744Z" fill="#E8734D"/>
<path d="M70.2444 149.702C70.2444 149.702 71.772 151.848 71.5628 152.188C71.354 152.528 69.7468 152.577 68.7696 152.188C67.792 151.8 67.7692 149.284 67.3268 148.205C67.1416 147.752 67.5368 146.417 68.0948 146.32C68.6524 146.223 69.2576 146.508 69.2576 146.508C69.2576 146.508 68.6792 148.03 70.2444 149.702Z" fill="#FFA000"/>
<path d="M69.2685 146.491C69.2685 146.491 69.5893 147.404 69.7069 148.277C69.8041 149 70.7949 150.536 70.7485 150.732C70.7017 150.926 69.4449 151.102 68.9321 150.6C68.4209 150.099 68.0905 148.642 67.9781 147.772C67.8725 146.96 67.7405 146.559 67.7405 146.559C67.7405 146.559 68.7789 145.956 69.2685 146.491Z" fill="#A77860"/>
<path d="M56.9511 149.738C56.9511 149.738 58.4235 151.848 58.2135 152.188C58.0039 152.528 56.3983 152.577 55.4203 152.188C54.4431 151.8 54.4187 149.284 53.9771 148.205C53.7915 147.752 54.1883 146.417 54.7455 146.32C55.3027 146.223 55.9555 146.528 55.9555 146.528C55.9555 146.528 55.3855 148.065 56.9511 149.738Z" fill="#FFA000"/>
<path d="M55.9557 146.528C55.9557 146.528 56.0721 147.524 56.2581 148.229C56.4449 148.933 57.4457 150.536 57.3993 150.731C57.3529 150.926 56.0949 151.102 55.5837 150.6C55.0713 150.098 54.6753 148.648 54.6293 147.771C54.5829 146.892 54.7457 146.32 54.7457 146.32C54.7457 146.32 55.4669 145.994 55.9557 146.528Z" fill="#A77860"/>
<path d="M69.3604 146.938C69.3604 146.938 69.2848 147.002 69.1564 147.066C68.9084 147.194 68.4564 147.326 67.9884 146.986C67.948 146.958 67.8724 146.834 67.7604 146.634C67.7604 146.634 67.7604 146.634 67.7604 146.63V146.626C67.7484 146.61 67.7404 146.594 67.7284 146.574C66.7644 144.802 63.7004 137.85 63.7004 135.77C63.7004 133.397 62.4764 130.502 61.7004 128.822C61.4088 128.194 61.1764 127.738 61.0964 127.538C61.0124 127.334 60.9324 127.134 60.8564 126.938C58.3604 120.646 58.8644 118.686 58.5124 118.258C58.1528 117.818 58.1208 118.53 57.9084 119.506C57.7684 120.165 57.5124 124.27 57.2764 127.162C57.2404 127.646 57.2004 128.098 57.1644 128.49C57.0964 129.21 57.0324 129.742 56.9764 129.962C56.7044 131.034 56.9164 134.642 56.7684 136.466C56.616 138.286 55.9564 146.53 55.9564 146.53C55.9564 146.53 55.4444 147.366 54.7244 146.55C54.7204 146.542 54.7124 146.526 54.7044 146.494C54.6924 146.458 54.6844 146.406 54.6684 146.338C54.4044 144.95 53.4844 137.194 53.4564 135.202C53.4244 133.034 53.3924 130.046 53.3364 129.11C53.3044 128.61 53.2724 128.134 53.2364 127.678C53.216 127.434 53.196 127.194 53.1764 126.962C52.5684 119.874 51.5924 118.302 53.5644 112.49C53.5728 112.465 53.5804 112.438 53.5924 112.414C53.9444 111.382 54.3124 110.526 54.6884 109.818C54.6964 109.802 54.7044 109.786 54.7124 109.77C54.7164 109.766 54.7124 109.766 54.7124 109.766C55.5004 108.298 56.3244 107.498 57.1324 107.158C57.3764 107.058 57.6208 106.998 57.8604 106.97C58.0084 106.958 58.1564 106.954 58.3044 106.965C58.3204 106.965 58.3404 106.965 58.3564 106.97C58.6764 106.997 58.9884 107.086 59.2884 107.218C59.2884 107.218 59.2924 107.218 59.2924 107.222C59.4164 107.27 59.5364 107.334 59.6564 107.397L59.6644 107.402C60.1124 107.654 60.5404 107.994 60.9284 108.37C60.9724 108.41 61.0084 108.446 61.0484 108.49L61.0528 108.494C61.2248 108.662 61.3848 108.838 61.5408 109.014C61.6888 109.186 61.8324 109.362 61.9648 109.534C62.0852 109.686 62.1892 109.826 62.2968 109.97V109.974C62.7448 110.602 63.0648 111.154 63.2212 111.422C63.2328 111.442 63.2452 111.462 63.2532 111.482C63.2772 111.534 63.2968 111.566 63.3052 111.586C63.3092 111.59 63.3132 111.594 63.3132 111.598C63.3132 111.602 63.3172 111.606 63.3172 111.61C63.3256 111.658 63.3696 111.874 63.4376 112.202C63.7736 113.826 64.6812 118.261 64.9256 119.561C65.0896 120.429 65.4096 123.102 65.6856 125.578C65.8132 126.729 65.9292 127.834 66.0172 128.702C66.0896 129.418 66.1416 129.97 66.1612 130.242C66.2492 131.562 67.5252 136.53 67.4652 137.002C67.4132 137.414 68.8812 144.61 69.2696 146.49C69.2696 146.494 69.2696 146.498 69.2736 146.502C69.2776 146.514 69.2776 146.522 69.2816 146.529C69.3324 146.79 69.3604 146.938 69.3604 146.938Z" fill="#A77860"/>
<path d="M65.9849 125.418C65.8889 125.474 65.7889 125.526 65.6849 125.578C64.2889 126.306 62.5765 126.718 60.8569 126.938C59.6325 127.097 58.4005 127.158 57.2769 127.162C55.5369 127.17 54.0409 127.05 53.1769 126.962C52.6729 126.91 52.3853 126.87 52.3853 126.87C51.4053 119.786 52.4129 114.994 53.3533 112.338C53.9489 110.646 54.5129 109.818 54.5129 109.818C54.5129 109.818 54.5769 109.818 54.6889 109.818H54.7129C55.1853 109.818 56.4249 109.834 57.8249 109.938C59.0928 110.034 60.4929 110.206 61.5689 110.514C61.8444 110.593 62.1004 110.682 62.3249 110.778C62.7368 110.957 63.0489 111.17 63.2209 111.421C63.2325 111.442 63.2449 111.461 63.2529 111.481C63.2769 111.517 63.2928 111.549 63.3048 111.585C63.3088 111.589 63.3128 111.593 63.3128 111.597C63.3128 111.602 63.3169 111.605 63.3169 111.609C63.3693 111.745 63.4252 111.937 63.4928 112.169C64.3048 115.17 65.9849 125.418 65.9849 125.418Z" fill="#324DA9"/>
<path d="M67.2852 148.016V150.262H67.5652V148.526L67.2852 148.016Z" fill="#FFA000"/>
<path d="M53.936 148.016V150.262H54.2156V148.526L53.936 148.016Z" fill="#FFA000"/>
<path d="M57.3248 89.85L57.3088 90.0024L57.2768 90.3384C57.2768 90.3384 57.2728 90.3384 57.2728 90.3424L57.1004 91.9744L56.9324 93.5464L56.7688 95.1184C56.7688 95.1184 56.6484 95.2144 56.4528 95.362C56.4484 95.366 56.4484 95.3704 56.4444 95.3704C56.4164 95.394 56.3848 95.418 56.3528 95.4424C56.3088 95.4744 56.2644 95.5104 56.2164 95.5464C56.0688 95.658 55.8964 95.7824 55.7084 95.922C55.7044 95.926 55.7044 95.926 55.7 95.926C55.692 95.93 55.68 95.9384 55.6684 95.9464C55.3 96.2104 54.8764 96.5028 54.46 96.7544C53.54 97.3184 52.66 97.7028 52.496 97.2464C52.4844 97.2184 52.48 97.19 52.476 97.162V97.158C52.452 96.99 52.496 96.7464 52.624 96.4104C52.776 96.0064 52.896 95.6464 52.992 95.3104C52.992 95.3024 52.996 95.29 52.996 95.2824C53.008 95.2424 53.016 95.2068 53.024 95.1708C53.084 94.9624 53.132 94.7624 53.168 94.5748C53.4596 93.1028 53.268 91.9904 53.404 89.4904C53.42 89.1748 53.444 88.8388 53.472 88.4748C53.7316 85.2428 56.088 84.8864 57.224 84.9108C56.212 84.9108 55.22 85.2828 54.548 86.1428C53.728 87.1904 53.664 88.3388 53.8844 89.3224C54.0244 89.9748 54.2844 90.5584 54.528 90.998C54.548 90.962 54.5684 90.93 54.588 90.898C55.2848 89.742 56.2048 89.0296 57.3248 89.85Z" fill="#324DA9"/>
<path d="M59.4284 96.454C59.4284 96.454 59.3444 96.4744 59.2084 96.5064C58.9244 96.5704 58.3964 96.6784 57.8604 96.754C57.7804 96.7656 57.7004 96.7784 57.6204 96.786C57.6044 96.79 57.5844 96.79 57.5684 96.794C57.396 96.8144 57.2244 96.83 57.064 96.8348C56.844 96.8464 56.64 96.8428 56.48 96.8184C56.148 96.766 55.976 96.63 56.128 96.3464C56.16 96.29 56.1844 96.226 56.208 96.158C56.252 96.0464 56.284 95.9144 56.308 95.7704V95.7656C56.308 95.7616 56.308 95.7616 56.308 95.7576C56.328 95.6576 56.34 95.5496 56.352 95.442C56.384 95.4176 56.4156 95.3936 56.4436 95.37C56.4476 95.37 56.4476 95.3652 56.452 95.3616C56.6476 95.214 56.768 95.118 56.768 95.118L56.9316 93.546L57.0996 91.974C57.8996 91.846 58.872 91.8296 58.6276 92.542C58.4916 92.95 58.5436 93.542 58.6716 94.142C58.6716 94.15 58.6756 94.1536 58.6756 94.1616C58.7116 94.3256 58.7516 94.4896 58.7956 94.6536C58.8396 94.8216 58.8916 94.9816 58.9396 95.138L59.1036 95.6296L59.1076 95.646C59.2848 96.1256 59.4284 96.454 59.4284 96.454Z" fill="#A77860"/>
<path d="M50.6083 106.563C50.6563 106.954 52.4819 106.872 54.4299 106.673C54.4319 106.681 54.4339 106.688 54.4363 106.696C54.4779 106.868 54.5143 107.021 54.5407 107.129C54.5691 107.247 54.5959 107.372 54.6187 107.502C54.8143 108.617 54.7987 110.187 54.4267 111.532C54.4267 111.532 59.3371 113.362 62.3995 111.694C62.3995 111.694 62.0743 109.031 62.5627 107.31C63.0523 105.588 65.6067 99.5904 65.6067 99.5904C65.6067 99.5904 63.7547 96.9132 62.3415 96.4232C60.9283 95.9332 59.1063 95.6304 59.1063 95.6304L56.4579 95.728C56.4579 95.728 54.2531 96.3024 53.7591 96.4576C52.8771 96.7364 52.5359 97.0296 52.0791 97.9404C51.4511 99.1928 50.3927 104.803 50.6083 106.563ZM53.3931 103.613C53.3931 103.613 53.6343 104.147 53.8507 104.751C53.6743 104.767 53.5071 104.768 53.4279 104.78C52.7303 104.884 53.2547 103.998 53.3931 103.613Z" fill="#FFA000"/>
<path d="M58.7965 94.654C57.1689 94.426 56.9405 93.5704 56.9325 93.546C58.6729 94.142 58.6729 94.142 58.6729 94.142C58.6729 94.15 58.6769 94.1536 58.6769 94.1616C58.7125 94.3256 58.7529 94.49 58.7965 94.654Z" fill="#A77860"/>
<path d="M53.428 103.634C53.428 103.634 53.5476 103.886 53.8748 104.875C54.2068 102.096 54.0332 100.648 54.0332 100.648C53.9968 102.134 53.428 103.634 53.428 103.634Z" fill="#CFBEB8"/>
<path d="M54.436 106.696C54.4776 106.868 54.514 107.021 54.5404 107.129C54.5688 107.247 54.5956 107.372 54.6184 107.502C55.7152 106.906 56.5036 106.44 56.5036 106.44C56.2084 106.506 54.436 106.696 54.436 106.696Z" fill="#CFBEB8"/>
<path d="M56.3083 95.7664L59.4271 98.3084L59.1055 95.6304C59.1059 95.6304 57.2875 95.2384 56.3083 95.7664Z" fill="#A77860"/>
<path d="M58.5261 97.8772L59.4273 98.3084L56.3649 95.2728L58.5261 97.8772Z" fill="#FCD2B1"/>
<path d="M58.7964 103.182C58.7764 103.638 58.7324 104.158 58.6688 104.714C58.6164 105.17 58.5528 105.654 58.4804 106.15C58.4724 106.194 58.4688 106.238 58.4604 106.282C58.4244 106.51 58.3924 106.738 58.3564 106.97C58.3524 106.974 58.3524 106.978 58.3524 106.982C58.3404 107.046 58.328 107.114 58.3204 107.182C58.3084 107.242 58.3 107.306 58.2884 107.37C58.28 107.426 58.2684 107.486 58.2604 107.542C58.1204 108.366 57.9688 109.182 57.8244 109.938C57.6484 110.83 57.4844 111.638 57.3484 112.254C57.3208 112.394 57.2924 112.522 57.2688 112.642C57.1688 113.106 56.6928 113.382 56.2408 113.242L53.5928 112.414L53.3528 112.339L53.0928 112.258C53.0928 112.258 54.5528 108.579 54.2928 106.711C54.2968 106.703 54.2928 106.694 54.2928 106.69C54.2808 106.615 54.2688 106.547 54.2528 106.479C54.1048 105.871 53.9408 105.298 53.7928 104.803C53.7888 104.787 53.7808 104.771 53.7768 104.755C53.7768 104.747 53.7728 104.739 53.7688 104.73C53.7164 104.562 53.6644 104.411 53.6208 104.262L53.5484 104.043C53.5048 103.918 53.4644 103.807 53.4324 103.707C53.4284 103.69 53.4244 103.679 53.4164 103.666C53.4164 103.666 53.4124 103.662 53.4164 103.662C53.3124 103.358 53.2444 103.182 53.2444 103.182C53.2444 103.182 52.4564 98.8388 54.4604 96.7544C54.7848 96.4184 55.1848 96.1388 55.6688 95.9464C55.7048 95.9348 55.7408 95.9184 55.7768 95.9064C55.7888 95.9024 55.7928 95.9023 55.7928 95.9023C55.8808 95.8703 55.9728 95.8424 56.0688 95.818C56.1484 95.7936 56.2248 95.7744 56.3088 95.758C56.3168 95.758 56.3248 95.7539 56.3328 95.7539C56.3732 95.7459 56.4088 95.7384 56.4488 95.7344C56.4532 95.7296 56.4532 95.7296 56.4572 95.7296C56.4572 95.7296 56.5252 95.838 56.6372 96.0344C56.7412 96.222 56.8932 96.4936 57.0648 96.8344C57.2928 97.29 57.5648 97.8616 57.8212 98.5064C58.3728 99.89 58.8688 101.602 58.7964 103.182Z" fill="#203991"/>
<path d="M66.1408 100.098L64.4808 102.29L64.1008 102.79L63.2572 103.906C63.2572 104.326 63.2652 104.79 63.2812 105.282V105.286C63.2856 105.429 63.2932 105.57 63.2972 105.714C63.3172 106.218 63.3452 106.738 63.3732 107.257C63.3932 107.578 63.4132 107.897 63.4328 108.21C63.4372 108.242 63.4372 108.274 63.4412 108.306V108.349C63.4692 108.749 63.4972 109.134 63.5252 109.497C63.5252 109.525 63.5252 109.553 63.5292 109.581C63.6332 110.993 63.7292 112.034 63.7292 112.034L63.4932 112.17L63.4372 112.202L62.4092 112.793C62.0532 112.997 61.6092 112.746 61.6008 112.338C61.6008 112.246 61.5968 112.146 61.5968 112.042C61.5888 111.614 61.5808 111.089 61.5692 110.514C61.5608 110.202 61.5572 109.87 61.5488 109.529C61.5488 109.361 61.5448 109.189 61.5408 109.014C61.5368 108.897 61.5368 108.778 61.5324 108.657V108.646L61.5208 107.997C61.5164 107.902 61.5164 107.806 61.5124 107.714C61.5084 107.406 61.5044 107.102 61.4964 106.797C61.4924 106.502 61.4848 106.21 61.4804 105.925C61.4724 105.55 61.4644 105.185 61.4604 104.842C61.4484 104.297 61.4364 103.802 61.4284 103.385C61.3964 101.774 60.7444 99.6096 60.1688 97.9932C59.6964 96.6816 59.2804 95.7292 59.2804 95.7292C59.2964 95.734 59.3084 95.7376 59.3244 95.7456C59.3564 95.7536 59.3884 95.7652 59.4204 95.7776L59.3844 95.6816L59.364 95.6292C59.364 95.6292 59.428 95.6376 59.54 95.6572C60.096 95.7532 61.824 96.0696 62.784 96.5492C63.052 96.6812 63.3756 96.9452 63.7156 97.2736C64.252 97.7816 64.824 98.4456 65.284 99.0016C65.7804 99.614 66.1408 100.098 66.1408 100.098Z" fill="#203991"/>
<path d="M63.528 109.497C63.528 109.497 61.3536 109.581 61.0152 109.497C60.6776 109.412 58.4212 108.434 58.2852 107.467C58.15 106.501 63.528 108.333 63.528 108.333V109.497Z" fill="#A77860"/>
<path d="M56.7812 106.476L65.6065 105.444L61.6201 108.688L56.7812 106.476Z" fill="#D3D3D3"/>
<path d="M61.62 108.688L56.7812 107.038V106.476L61.7828 108.081L61.62 108.688Z" fill="#F2F2F2"/>
<path d="M59.3447 104.856C59.3447 104.856 60.0743 104.856 60.4835 104.774C60.7999 104.709 61.5859 104.798 61.7871 104.975C61.9867 105.152 62.6243 106.389 62.7451 106.465C62.8651 106.54 62.6835 106.716 62.4715 106.628C62.4715 106.628 62.2775 107.168 61.7975 106.967C61.3179 106.764 60.9919 106.321 60.7411 106.243C60.4903 106.165 59.0283 105.772 59.0283 105.772C59.0283 105.772 58.9679 104.724 59.3447 104.856Z" fill="#A77860"/>
<path d="M61.4284 98.31L60.6208 97.7976L59.3248 95.746L59.2688 95.658L58.9408 95.1384L59.5408 95.658L59.5804 95.718L61.4284 98.31Z" fill="#FFA000"/>
<path d="M60.6192 97.7968L59.4272 98.3084L59.106 95.6304L58.9392 95.1368L60.6192 97.7968Z" fill="#FCD2B1"/>
<path d="M69.7005 106.622C69.7005 106.622 69.7049 106.862 69.6409 107.202C69.5849 107.522 69.4609 107.934 69.2129 108.306C68.7729 108.966 64.6329 109.462 63.5289 109.582C63.3569 109.602 63.2609 109.61 63.2609 109.61C63.2729 109.586 63.2769 109.55 63.2853 109.506C63.3213 109.234 63.2893 108.642 63.2693 108.382C63.2649 108.302 63.2609 108.254 63.2609 108.254L63.2769 108.25L63.4329 108.21L69.7005 106.622Z" fill="#203991"/>
<path d="M73.9763 98.086L71.6963 105.578L71.2963 106.894L69.6407 107.202L63.5283 108.334L63.4407 108.35L63.2687 108.382L62.3443 108.55L61.6207 108.686L61.7847 108.082L61.8567 107.81L62.0727 107.002L62.3727 105.886L62.3923 105.818L63.7367 100.818L64.1923 99.118L65.1803 99.014L65.2847 99.0024L73.9763 98.086Z" fill="#F2F2F2"/>
<path d="M56.3647 95.2728L58.5259 97.8772L57.3427 98.9312L56.0671 95.814L56.3647 95.2728Z" fill="#FFA000"/>
<path d="M59.3644 104.754L59.3444 104.858L59.1644 105.806L59.1164 106.05C59.1164 106.05 58.8728 106.09 58.4804 106.15C57.9964 106.226 57.2804 106.33 56.5048 106.438C56.5004 106.438 56.5004 106.438 56.4964 106.442C56.4604 106.446 56.4208 106.45 56.3848 106.458C55.9324 106.518 55.4644 106.578 55.0124 106.634C54.9124 106.642 54.8164 106.654 54.7208 106.666C54.6804 106.67 54.6408 106.674 54.6048 106.678C54.5484 106.682 54.4928 106.69 54.4368 106.698C54.3888 106.702 54.3408 106.706 54.2928 106.71C53.9848 106.742 53.6928 106.77 53.4288 106.786C53.4288 106.786 52.4448 106.902 51.6328 106.902C51.1088 106.902 50.6572 106.854 50.5808 106.697C50.3808 106.302 50.6448 103.761 51.0768 101.474C51.5088 99.1852 51.9528 97.8696 52.4768 97.1612V97.1572C52.6048 96.9852 52.8648 96.8252 53.1888 96.6776C53.2324 96.6572 53.2728 96.6416 53.3164 96.6212C53.4084 96.5812 53.5048 96.5416 53.6004 96.5096C54.4248 96.1972 55.4164 95.9776 55.7088 95.9212C55.7408 95.9132 55.7648 95.9056 55.7768 95.9056C55.7888 95.9016 55.7928 95.9016 55.7928 95.9016L54.0768 101.513V101.517L53.7248 102.661L53.7164 102.697L53.4408 103.593L53.4288 103.634C53.4288 103.634 53.4248 103.645 53.4168 103.661C53.4128 103.661 53.4168 103.665 53.4168 103.665C53.3488 103.806 53.0928 104.365 53.1052 104.621C53.1132 104.713 53.1772 104.753 53.2612 104.77C53.3212 104.765 53.4492 104.753 53.6292 104.742L53.7572 104.729H53.7692C53.7892 104.725 53.8052 104.725 53.8252 104.725C53.8332 104.725 53.8372 104.725 53.8452 104.721H53.8932C54.4812 104.678 55.3532 104.625 56.0732 104.621C56.5772 104.621 57.2292 104.642 57.8212 104.67C58.1328 104.681 58.4252 104.697 58.6692 104.713C59.0848 104.734 59.3644 104.754 59.3644 104.754Z" fill="#203991"/>
<path d="M172.484 86.6752C172.484 86.6752 171.637 88.2448 172.057 88.4884C172.403 88.6908 171.65 90.232 171.552 90.4836C171.453 90.7344 172.18 90.918 172.334 91.0796C172.489 91.242 172.946 93.2352 173.545 93.2952C174.143 93.3552 176.84 92.4172 177.574 91.6536C178.309 90.89 178.911 87.442 178.421 85.9864C177.932 84.532 173.978 83.932 172.484 86.6752Z" fill="#EEA987"/>
<path d="M172.315 87.0148C172.315 87.0148 170.594 85.2732 172.078 84.4436C176.311 82.0748 177.486 85.0116 177.812 85.0952C178.138 85.1796 179.989 85.3068 179.055 88.5576C178.252 91.3496 177.574 91.6536 177.574 91.6536C177.574 91.6536 177.541 89.8496 177.201 89.602C176.671 89.2176 175.509 89.3104 175.509 89.3104C175.509 89.3104 176.063 87.84 175.197 87.6308C174.332 87.4236 173.191 86.69 172.315 87.0148Z" fill="#203991"/>
<path d="M176.262 88.9064C176.339 88.704 176.586 87.8384 177.329 88.3472C178.073 88.8564 176.867 90.49 176.737 90.5112C176.607 90.5324 175.62 90.6048 176.262 88.9064Z" fill="#EEA987"/>
<path d="M141.921 96.3296C141.185 97.0936 138.489 98.0344 137.889 97.974C137.293 97.914 136.832 95.9176 136.677 95.7576C136.525 95.5936 135.797 95.41 135.897 95.1616C135.993 94.91 136.749 93.3656 136.401 93.1656C136.105 92.9936 136.437 92.1656 136.661 91.69C136.753 91.486 136.829 91.35 136.829 91.35C138.325 88.61 142.277 89.21 142.765 90.6616C143.257 92.118 142.653 95.5656 141.921 96.3296Z" fill="#EEA987"/>
<path d="M143.4 93.2344C142.596 96.026 141.921 96.3296 141.921 96.3296C141.921 96.3296 141.893 94.8936 141.645 94.41C141.613 94.35 141.581 94.306 141.545 94.278C141.273 94.082 140.837 94.01 140.473 93.9896C140.129 93.9652 139.853 93.9856 139.853 93.9856C139.853 93.9856 140.409 92.5176 139.541 92.31C138.677 92.102 137.537 91.3656 136.661 91.6896C136.661 91.6896 134.937 89.9496 136.421 89.1216C140.657 86.7536 141.829 89.6896 142.157 89.774C142.485 89.858 144.332 89.982 143.4 93.2344Z" fill="#203991"/>
<path d="M140.606 93.5836C140.683 93.3812 140.931 92.5148 141.674 93.0244C142.418 93.5336 141.211 95.1672 141.081 95.1884C140.951 95.2096 139.964 95.2812 140.606 93.5836Z" fill="#EEA987"/>
</svg>
