<svg width="17" height="16" viewBox="0 0 17 16" fill="none" xmlns="http://www.w3.org/2000/svg">
<path d="M2.11279 4.96002L7.99945 8.36668L13.8461 4.98" stroke="#203991" stroke-width="1.5" stroke-linecap="round" stroke-linejoin="round"/>
<path d="M8 14.4066V8.35995" stroke="#203991" stroke-width="1.5" stroke-linecap="round" stroke-linejoin="round"/>
<path d="M1.59326 9.8867V6.11335C1.59326 5.19335 2.25325 4.07336 3.05992 3.62669L6.61991 1.65334C7.37991 1.22668 8.61992 1.22668 9.37992 1.65334L12.9399 3.62669C13.7466 4.07336 14.4066 5.19335 14.4066 6.11335V9.8867C14.4066 9.92003 14.4066 9.94667 14.3999 9.98C13.9333 9.57334 13.3333 9.33336 12.6666 9.33336C12.0399 9.33336 11.4599 9.55336 10.9999 9.92003C10.3866 10.4067 9.99992 11.16 9.99992 12C9.99992 12.5 10.1399 12.9734 10.3866 13.3734C10.4466 13.48 10.5199 13.58 10.5999 13.6734L9.37992 14.3467C8.61992 14.7734 7.37991 14.7734 6.61991 14.3467L3.05992 12.3734" stroke="#203991" stroke-width="1.5" stroke-linecap="round" stroke-linejoin="round"/>
<path d="M15.3333 12C15.3333 12.8 14.98 13.5133 14.4267 14C13.9533 14.4133 13.34 14.6667 12.6667 14.6667C11.1933 14.6667 10 13.4733 10 12C10 11.16 10.3867 10.4067 11 9.92001C11.46 9.55335 12.04 9.33334 12.6667 9.33334C14.14 9.33334 15.3333 10.5267 15.3333 12Z" stroke="#203991" stroke-width="1.5" stroke-miterlimit="10" stroke-linecap="round" stroke-linejoin="round"/>
<path d="M12.8333 11.1667V12.1667L12 12.6667" stroke="#203991" stroke-width="1.5" stroke-miterlimit="10" stroke-linecap="round" stroke-linejoin="round"/>
</svg>
