<svg width="10" height="12" viewBox="0 0 10 12" fill="none" xmlns="http://www.w3.org/2000/svg">
<path d="M9.7602 5.29333C9.82331 5.35592 9.8588 5.44112 9.8588 5.53C9.8588 5.61887 9.82331 5.70407 9.7602 5.76666L9.62687 5.9C9.56415 5.9651 9.47726 6.00131 9.38687 6H7.0002V11C7.0002 11.1841 6.85096 11.3333 6.66687 11.3333H3.33353C3.14944 11.3333 3.0002 11.1841 3.0002 11V6H0.613534C0.523144 6.00131 0.436251 5.9651 0.373534 5.9L0.240201 5.76666C0.177097 5.70407 0.141602 5.61887 0.141602 5.53C0.141602 5.44112 0.177097 5.35592 0.240201 5.29333L4.76687 0.766662C4.82736 0.70221 4.91181 0.665649 5.0002 0.665649C5.08859 0.665649 5.17305 0.70221 5.23353 0.766662L9.7602 5.29333Z" fill="white"/>
</svg>
