<svg width="14" height="14" viewBox="0 0 14 14" fill="none" xmlns="http://www.w3.org/2000/svg">
<path fill-rule="evenodd" clip-rule="evenodd" d="M0.333008 3.33325C0.333008 3.51735 0.482246 3.66659 0.666341 3.66659H10.333V8.99992H11.6663V3.66659C11.6663 2.93021 11.0694 2.33325 10.333 2.33325H3.66634V0.666585C3.66634 0.48249 3.5171 0.333252 3.33301 0.333252H2.66634C2.48225 0.333252 2.33301 0.48249 2.33301 0.666585V2.33325H0.666341C0.482246 2.33325 0.333008 2.48249 0.333008 2.66659V3.33325ZM3.66634 10.3333H13.333C13.5171 10.3333 13.6663 10.4825 13.6663 10.6666V11.3333C13.6663 11.5173 13.5171 11.6666 13.333 11.6666H11.6663V13.3333C11.6663 13.5173 11.5171 13.6666 11.333 13.6666H10.6663C10.4822 13.6666 10.333 13.5173 10.333 13.3333V11.6666H3.66634C2.92996 11.6666 2.33301 11.0696 2.33301 10.3333V4.99992H3.66634V10.3333Z" fill="#283C5C"/>
</svg>
