<svg width="14" height="14" viewBox="0 0 14 14" fill="none" xmlns="http://www.w3.org/2000/svg">
<path fill-rule="evenodd" clip-rule="evenodd" d="M6.99967 0.333252C3.31778 0.333252 0.333008 3.31802 0.333008 6.99992C0.333008 10.6818 3.31778 13.6666 6.99967 13.6666C10.6816 13.6666 13.6663 10.6818 13.6663 6.99992C13.6663 5.23181 12.964 3.53612 11.7137 2.28587C10.4635 1.03563 8.76779 0.333252 6.99967 0.333252ZM6.99967 12.3333C4.05416 12.3333 1.66634 9.94544 1.66634 6.99992C1.66634 4.0544 4.05416 1.66659 6.99967 1.66659C9.94519 1.66659 12.333 4.0544 12.333 6.99992C12.333 8.41441 11.7711 9.77096 10.7709 10.7712C9.77072 11.7713 8.41416 12.3333 6.99967 12.3333ZM8.70634 4.93998L9.05967 5.29331C9.12412 5.3538 9.16069 5.43825 9.16069 5.52665C9.16069 5.61504 9.12412 5.69949 9.05967 5.75998L7.82634 6.99998L9.05967 8.23998C9.12412 8.30047 9.16069 8.38492 9.16069 8.47331C9.16069 8.5617 9.12412 8.64616 9.05967 8.70665L8.70634 9.05998C8.64585 9.12443 8.5614 9.16099 8.47301 9.16099C8.38462 9.16099 8.30016 9.12443 8.23967 9.05998L6.99967 7.82665L5.75967 9.05998C5.69918 9.12443 5.61473 9.16099 5.52634 9.16099C5.43795 9.16099 5.3535 9.12443 5.29301 9.05998L4.93967 8.70665C4.87522 8.64616 4.83866 8.5617 4.83866 8.47331C4.83866 8.38492 4.87522 8.30047 4.93967 8.23998L6.17301 6.99998L4.93967 5.75998C4.87522 5.69949 4.83866 5.61504 4.83866 5.52665C4.83866 5.43825 4.87522 5.3538 4.93967 5.29331L5.29301 4.93998C5.3535 4.87553 5.43795 4.83897 5.52634 4.83897C5.61473 4.83897 5.69918 4.87553 5.75967 4.93998L6.99967 6.17331L8.23967 4.93998C8.30016 4.87553 8.38462 4.83897 8.47301 4.83897C8.5614 4.83897 8.64585 4.87553 8.70634 4.93998Z" fill="white"/>
</svg>
