<svg width="30" height="30" viewBox="0 0 30 30" fill="none" xmlns="http://www.w3.org/2000/svg">
<path fill-rule="evenodd" clip-rule="evenodd" d="M30 14.1667V26.6667C30 28.5076 28.5076 30 26.6667 30H3.33333C1.49238 30 0 28.5076 0 26.6667V3.33333C0 1.49238 1.49238 0 3.33333 0H15.8333C16.2936 0 16.6667 0.373096 16.6667 0.833333V2.5C16.6667 2.96024 16.2936 3.33333 15.8333 3.33333H3.33333V26.6667H26.6667V14.1667C26.6667 13.7064 27.0398 13.3333 27.5 13.3333H29.1667C29.6269 13.3333 30 13.7064 30 14.1667ZM29.5167 1.18333L28.8167 0.483333C28.5062 0.175426 28.0872 0.00184104 27.65 0H27.15C26.7128 0.00184104 26.2938 0.175426 25.9833 0.483333L22.9833 3.48333C22.6657 3.80737 22.6657 4.32596 22.9833 4.65L25.35 7.01667C25.674 7.33429 26.1926 7.33429 26.5167 7.01667L29.5167 4.01667C29.8246 3.70623 29.9982 3.28723 30 2.85V2.35C29.9982 1.91277 29.8246 1.49377 29.5167 1.18333ZM6.73334 22.1502L8.05 18.8169C8.21459 18.3931 8.46416 18.0074 8.78334 17.6836L19.75 6.6669C20.074 6.34928 20.5926 6.34928 20.9167 6.6669L23.3333 9.08357C23.651 9.4076 23.651 9.9262 23.3333 10.2502L12.2833 21.1836C11.9595 21.5027 11.5738 21.7523 11.15 21.9169L7.81667 23.2336C7.50703 23.3582 7.15288 23.2861 6.91667 23.0502C6.68083 22.814 6.60868 22.4599 6.73334 22.1502Z" fill="white"/>
</svg>
