<svg width="44" height="44" viewBox="0 0 44 44" fill="none" xmlns="http://www.w3.org/2000/svg">
<path fill-rule="evenodd" clip-rule="evenodd" d="M4 0H32C34.2091 0 36 1.79086 36 4V32C36 34.2091 34.2091 36 32 36H4C1.79086 36 0 34.2091 0 32V4C0 1.79086 1.79086 0 4 0ZM32 27.64C32.0054 27.9087 31.9024 28.1682 31.7143 28.3601C31.5261 28.552 31.2687 28.6601 31 28.66C30.695 28.6616 30.4067 28.5211 30.22 28.28L22.22 18.28C22.0333 18.0389 21.7449 17.8984 21.44 17.9C21.1343 17.8952 20.8446 18.0364 20.66 18.28L16.16 24.14C15.9753 24.3836 15.6857 24.5248 15.38 24.52C15.066 24.5169 14.7709 24.3694 14.58 24.12L12.58 21.4C12.3792 21.1521 12.079 21.0057 11.76 21C11.446 21.0031 11.1509 21.1506 10.96 21.4L5.79998 28.26C5.61551 28.517 5.31627 28.6666 4.99998 28.66C4.73312 28.6655 4.47555 28.5619 4.28681 28.3732C4.09807 28.1844 3.99448 27.9269 3.99998 27.66V4H32V27.64ZM13 10C11.3431 10 10 11.3431 10 13C10 14.6569 11.3431 16 13 16C14.6569 16 16 14.6569 16 13C16 11.3431 14.6569 10 13 10ZM40 36V8C42.2091 8 44 9.79086 44 12V36C44 40.4183 40.4183 44 36 44H12C9.79086 44 8 42.2091 8 40H36C38.2091 40 40 38.2091 40 36Z" fill="#283C5C"/>
</svg>
