<svg width="12" height="9" viewBox="0 0 12 9" fill="none" xmlns="http://www.w3.org/2000/svg">
<path d="M11.2329 1.83339L4.16624 8.90006C4.10365 8.96316 4.01846 8.99866 3.92958 8.99866C3.8407 8.99866 3.7555 8.96316 3.69291 8.90006L0.099576 5.30672C0.0364718 5.24414 0.000976562 5.15894 0.000976562 5.07006C0.000976562 4.98118 0.0364718 4.89598 0.099576 4.83339L0.566243 4.36672C0.628832 4.30362 0.71403 4.26812 0.802909 4.26812C0.891789 4.26812 0.976987 4.30362 1.03958 4.36672L3.92624 7.25339L10.2929 0.886724C10.4248 0.758869 10.6344 0.758869 10.7662 0.886724L11.2329 1.36006C11.296 1.42265 11.3315 1.50785 11.3315 1.59672C11.3315 1.6856 11.296 1.7708 11.2329 1.83339Z" fill="#0062FF"/>
</svg>
