<svg width="8" height="8" viewBox="0 0 8 8" fill="none" xmlns="http://www.w3.org/2000/svg">
<path d="M7.89958 6.96006C7.96268 7.02265 7.99817 7.10785 7.99817 7.19673C7.99817 7.28561 7.96268 7.37081 7.89958 7.4334L7.43291 7.90006C7.37032 7.96317 7.28512 7.99866 7.19624 7.99866C7.10736 7.99866 7.02216 7.96317 6.95958 7.90006L3.99958 4.94006L1.03958 7.90006C0.976987 7.96317 0.891788 7.99866 0.802909 7.99866C0.71403 7.99866 0.628832 7.96317 0.566243 7.90006L0.099576 7.4334C0.0364718 7.37081 0.000976562 7.28561 0.000976562 7.19673C0.000976562 7.10785 0.0364718 7.02265 0.099576 6.96006L3.05958 4.00006L0.099576 1.04006C0.0364718 0.977475 0.000976563 0.892277 0.000976563 0.803398C0.000976563 0.714518 0.0364718 0.62932 0.099576 0.566731L0.566243 0.100064C0.628832 0.0369601 0.71403 0.00146484 0.802909 0.00146484C0.891788 0.00146484 0.976987 0.0369601 1.03958 0.100064L3.99958 3.06006L6.95958 0.100064C7.02216 0.0369601 7.10736 0.00146484 7.19624 0.00146484C7.28512 0.00146484 7.37032 0.0369601 7.43291 0.100064L7.89958 0.566731C7.96268 0.62932 7.99817 0.714518 7.99817 0.803398C7.99817 0.892277 7.96268 0.977475 7.89958 1.04006L4.93958 4.00006L7.89958 6.96006Z" fill="#283C5C"/>
</svg>
