<svg width="19" height="19" viewBox="0 0 19 19" fill="none" xmlns="http://www.w3.org/2000/svg">
<path fill-rule="evenodd" clip-rule="evenodd" d="M10 2.50001V1.50001C9.99764 1.36142 10.0518 1.22784 10.15 1.13001C10.2597 1.03336 10.4044 0.986321 10.55 1.00001C14.5489 1.26666 17.7333 4.45114 18 8.45001C18.0082 8.58883 17.9615 8.7253 17.87 8.83001C17.7722 8.92822 17.6386 8.98237 17.5 8.98001H16.5C16.2388 8.98085 16.0209 8.78042 16 8.52001C15.7722 5.57092 13.4291 3.22785 10.48 3.00001C10.2117 2.98927 9.99979 2.76853 10 2.50001ZM10.17 5.14001C10.0608 5.23594 9.99874 5.37466 10 5.52001V6.52001C9.99594 6.75906 10.165 6.96613 10.4 7.01001C11.2041 7.1572 11.8376 7.77888 12 8.58001C12.0439 8.81503 12.251 8.98407 12.49 8.98001H13.49C13.6354 8.98128 13.7741 8.91922 13.87 8.81001C13.9641 8.6993 14.0077 8.55426 13.99 8.41001C13.7289 6.64985 12.3494 5.26633 10.59 5.00001C10.4428 4.98776 10.2974 5.03866 10.19 5.14001H10.17ZM16.09 18.41C15.7142 18.7881 15.203 19.0004 14.67 19H14C12.3293 18.9929 10.6866 18.5702 9.22 17.77L8.77 17.52C5.66075 15.8483 3.11169 13.2993 1.44 10.19L1.19 9.74001C0.410139 8.28169 0.0014372 6.65376 6.26926e-07 5.00001V4.33001C-0.00042112 3.79697 0.211962 3.28581 0.590001 2.91001L2.28 1.22001C2.44413 1.05461 2.67581 0.974886 2.90696 1.00427C3.13811 1.03365 3.34248 1.16881 3.46 1.37001L5.71 5.23001C5.93753 5.6229 5.87183 6.11977 5.55 6.44001L3.66 8.33001C3.50305 8.48525 3.46647 8.72504 3.57 8.92001L3.92 9.58001C5.17704 11.9085 7.08926 13.8172 9.42 15.07L10.08 15.43C10.275 15.5335 10.5148 15.497 10.67 15.34L12.56 13.45C12.8802 13.1282 13.3771 13.0625 13.77 13.29L17.63 15.54C17.8312 15.6575 17.9664 15.8619 17.9957 16.0931C18.0251 16.3242 17.9454 16.5559 17.78 16.72L16.09 18.41Z" fill="#283C5C"/>
</svg>
