<svg width="19" height="19" viewBox="0 0 19 19" fill="none" xmlns="http://www.w3.org/2000/svg">
<path fill-rule="evenodd" clip-rule="evenodd" d="M9.26 17.81C10.7183 18.5899 12.3463 18.9986 14 19H14.67C15.203 19.0004 15.7142 18.788 16.09 18.41L17.78 16.72C17.9454 16.5559 18.0251 16.3242 17.9957 16.093C17.9664 15.8619 17.8312 15.6575 17.63 15.54L13.77 13.29C13.3771 13.0625 12.8802 13.1282 12.56 13.45L10.67 15.34C10.5148 15.497 10.275 15.5335 10.08 15.43L9.42 15.07C7.08926 13.8172 5.17704 11.9084 3.92 9.58L3.57 8.92C3.46647 8.72503 3.50305 8.48523 3.66 8.33L5.55 6.44C5.87183 6.11975 5.93753 5.62288 5.71 5.23L3.46 1.37C3.34248 1.16879 3.13811 1.03364 2.90696 1.00425C2.67581 0.97487 2.44413 1.05459 2.28 1.22L0.590001 2.91C0.211962 3.28579 -0.00042112 3.79695 6.26926e-07 4.33V5C0.00712835 6.67069 0.429825 8.31337 1.23 9.77999L1.48 10.23C3.15169 13.3392 5.70075 15.8883 8.81 17.56L9.26 17.81ZM12.9 2.65L15.9 5.65H15.86C16.0426 5.84914 16.0382 6.15615 15.85 6.35L12.85 9.35C12.7072 9.49006 12.4946 9.53148 12.3096 9.45531C12.1246 9.37914 12.0028 9.20003 12 9V7H9.5C9.22386 7 9 6.77614 9 6.5V5.5C9 5.22385 9.22386 5 9.5 5H12V3C11.9756 2.7752 12.1051 2.56202 12.3159 2.48006C12.5266 2.39811 12.7661 2.46779 12.9 2.65Z" fill="black"/>
</svg>
