<svg width="19" height="19" viewBox="0 0 19 19" fill="none" xmlns="http://www.w3.org/2000/svg">
<path d="M14 19C12.3463 18.9986 10.7183 18.5899 9.26 17.81L8.81 17.56C5.70075 15.8883 3.15169 13.3392 1.48 10.23L1.23 9.77999C0.429824 8.31337 0.00712772 6.67069 6.28795e-07 5V4.33C-0.000421747 3.79695 0.211961 3.28579 0.590001 2.91L2.28 1.22C2.44413 1.05459 2.67581 0.97487 2.90696 1.00425C3.13811 1.03364 3.34248 1.16879 3.46 1.37L5.71 5.23C5.93753 5.62288 5.87183 6.11975 5.55 6.44L3.66 8.33C3.50304 8.48523 3.46647 8.72503 3.57 8.92L3.92 9.58C5.17704 11.9084 7.08926 13.8172 9.42 15.07L10.08 15.43C10.275 15.5335 10.5148 15.497 10.67 15.34L12.56 13.45C12.8802 13.1282 13.3771 13.0625 13.77 13.29L17.63 15.54C17.8312 15.6575 17.9664 15.8619 17.9957 16.093C18.0251 16.3242 17.9454 16.5559 17.78 16.72L16.09 18.41C15.7142 18.788 15.203 19.0004 14.67 19H14Z" fill="white"/>
</svg>
